<svg width="28" height="28" viewBox="0 0 28 28" fill="none" xmlns="http://www.w3.org/2000/svg">
<g clip-path="url(#clip0_138_1452)">
<path d="M10.5 24.5H17.5" stroke="#222222" stroke-width="2" stroke-linecap="round" stroke-linejoin="round"/>
<path d="M6.12364 11.375C6.12364 9.28642 6.95333 7.28338 8.43018 5.80653C9.90703 4.32969 11.9101 3.5 13.9986 3.5C16.0872 3.5 18.0903 4.32969 19.5671 5.80653C21.044 7.28338 21.8736 9.28642 21.8736 11.375C21.8736 15.2928 22.7815 18.4406 23.5033 19.6875C23.58 19.8203 23.6204 19.9709 23.6206 20.1242C23.6207 20.2776 23.5805 20.4282 23.5041 20.5612C23.4277 20.6941 23.3177 20.8046 23.1851 20.8816C23.0525 20.9586 22.902 20.9995 22.7486 21H5.24864C5.0955 20.9991 4.94527 20.958 4.81299 20.8808C4.6807 20.8036 4.57099 20.6931 4.49482 20.5602C4.41864 20.4274 4.37867 20.2768 4.37891 20.1237C4.37914 19.9705 4.41957 19.8201 4.49614 19.6875C5.21692 18.4406 6.12364 15.2917 6.12364 11.375Z" stroke="#222222" stroke-width="2" stroke-linecap="round" stroke-linejoin="round"/>
</g>
<defs>
<clipPath id="clip0_138_1452">
<rect width="28" height="28" fill="white"/>
</clipPath>
</defs>
</svg>
