<svg width="28" height="28" viewBox="0 0 28 28" fill="none" xmlns="http://www.w3.org/2000/svg">
<g clip-path="url(#clip0_148_1372)">
<path d="M14 24.5C19.799 24.5 24.5 19.799 24.5 14C24.5 8.20101 19.799 3.5 14 3.5C8.20101 3.5 3.5 8.20101 3.5 14C3.5 19.799 8.20101 24.5 14 24.5Z" stroke="#222222" stroke-width="2" stroke-linecap="round" stroke-linejoin="round"/>
<path d="M13.125 13.125C13.3571 13.125 13.5796 13.2172 13.7437 13.3813C13.9078 13.5454 14 13.7679 14 14V18.375C14 18.6071 14.0922 18.8296 14.2563 18.9937C14.4204 19.1578 14.6429 19.25 14.875 19.25" stroke="#222222" stroke-width="2" stroke-linecap="round" stroke-linejoin="round"/>
<path d="M13.5625 10.5C14.2874 10.5 14.875 9.91237 14.875 9.1875C14.875 8.46263 14.2874 7.875 13.5625 7.875C12.8376 7.875 12.25 8.46263 12.25 9.1875C12.25 9.91237 12.8376 10.5 13.5625 10.5Z" fill="#222222"/>
</g>
<defs>
<clipPath id="clip0_148_1372">
<rect width="28" height="28" fill="white"/>
</clipPath>
</defs>
</svg>
