<svg width="62" height="62" viewBox="0 0 62 62" fill="none" xmlns="http://www.w3.org/2000/svg">
<path fill-rule="evenodd" clip-rule="evenodd" d="M30.8679 0C42.3761 0 52.4118 6.32494 57.72 15.7019C52.6422 7.54823 43.6228 2.1237 33.3404 2.1237C27.4267 2.1237 21.9317 3.919 17.3626 6.99518C19.6597 6.9548 22.0467 6.90364 24.2759 7.01639C27.6902 5.38958 31.509 4.47953 35.5394 4.47953C50.0755 4.47953 61.8592 16.3138 61.8592 30.9122C61.8592 32.2454 61.7599 33.5556 61.5701 34.8362C59.95 50.4879 45.4245 58.447 35.3024 58.4472C16.7716 58.4478 4.97314 41.8083 7.72791 30.197C8.28759 27.838 9.93239 26.2605 12.785 25.2132C10.8774 22.89 9.47088 19.9578 8.44744 16.5602C6.00416 20.8032 4.60432 25.7291 4.60432 30.9829C4.60432 46.9217 17.4702 59.8421 33.3404 59.8421C43.7436 59.8421 52.855 54.2903 57.8989 45.9763C52.6399 55.5295 42.5068 62 30.8679 62C13.8202 62 0 48.1206 0 30.9998C0 23.434 2.69849 16.5017 7.18233 11.1202C6.87161 9.34298 6.63029 7.48136 6.44778 5.54941C7.42743 6.4157 9.20563 6.79124 11.4055 6.94014C16.7162 2.60205 23.4886 0 30.8679 0ZM44.8934 22.1571C45.4624 20.646 45.926 19.7726 46.177 18.1659C44.7417 22.0463 43.436 23.6375 40.4881 26.1092C38.9368 27.0509 36.429 28.9697 34.3458 31.3687C32.9596 28.4572 31.0294 26.3446 28.7353 24.4166C26.3497 22.9689 23.6602 18.7333 21.0822 11.7619C21.5323 14.6493 22.0212 17.5251 23.0437 20.2399C19.7471 18.3695 16.0035 15.5362 11.9109 11.9529C16.236 16.6403 21.2029 20.812 26.6649 24.5856C22.8995 23.4483 19.0158 22.9171 14.8524 23.8361C24.0184 24.0915 31.0668 26.3207 33.3117 32.6507C31.9048 34.5437 30.8643 36.6549 30.755 38.78C17.9861 37.863 8.20486 34.3465 8.33916 30.5088C8.39874 28.8199 10.3699 27.3282 13.6493 26.1871C17.0886 29.7722 21.9787 31.5957 28.8741 30.9826C22.881 30.7182 18.4023 28.877 15.2087 25.6988L15.2368 25.6904C14.9207 25.3826 14.617 25.0624 14.3262 24.7291L14.3125 24.7325C10.9815 20.8466 9.26478 15.2805 8.83513 8.37521C14.6309 9.15989 15.1824 8.89767 21.319 8.65462C31.5716 8.56097 38.9187 14.0873 33.82 27.1291C34.6705 26.0931 35.3382 25.0282 35.8436 23.9555C37.1678 24.0212 38.4641 24.1154 39.7275 24.2353C39.741 24.5619 39.7644 24.8971 39.7996 25.2417C39.8097 24.9019 39.8289 24.5705 39.8569 24.2475L39.9134 24.2528C39.9446 23.953 39.9823 23.6608 40.0269 23.3755L39.9575 23.3716C40.6712 18.3884 43.654 15.5438 48.3394 14.3045L48.3536 14.3192C49.582 13.9979 50.9356 13.7861 52.4119 13.6746C52.0182 16.9565 52.1705 17.2776 52.3554 20.7624C52.394 22.4604 52.1619 24.0214 51.6319 25.3137C51.4839 25.6411 51.3248 25.9553 51.1508 26.2532L51.1626 26.2565C49.6667 28.7557 46.7157 29.8083 42.0155 28.0298C46.0057 31.2422 50.6743 29.7535 52.4158 26.6313C53.1616 26.8679 53.8638 27.1156 54.5174 27.3743C54.6429 28.3566 54.7074 29.3586 54.7074 30.3755C54.7074 32.6886 54.3724 34.9233 53.75 37.0334C49.4356 38.3188 43.3 39.067 36.4138 39.007C36.1306 36.6462 35.6498 34.6486 35.001 32.9156C38.3773 28.2582 44.7773 24.3408 49.538 25.122C47.2202 24.611 44.8705 24.5816 42.7744 25.2148C45.8146 23.1142 47.4568 21.0955 49.4166 17.6727C47.1385 19.6673 46.7279 21.1163 44.8934 22.1571ZM32.6928 38.8979C32.6933 37.5622 33.1176 36.1481 33.8512 34.7538C34.0653 36.0172 34.1241 37.4131 34.0111 38.954H34.0063C33.566 38.9382 33.1279 38.9194 32.6928 38.8979ZM53.3068 22.3681C53.2704 23.4494 53.1678 24.4686 52.9384 25.3405L52.9144 25.4253C53.3857 25.57 53.84 25.7204 54.2773 25.8779C54.0432 24.6723 53.7174 23.4997 53.3068 22.3681ZM39.7147 23.3589C39.7987 18.0364 42.8557 15.1142 47.5972 13.5513C43.4058 9.48328 37.7 6.97989 31.4112 6.97989C30.0509 6.97989 28.7181 7.0968 27.4217 7.32195C28.1047 7.42879 28.7574 7.56353 29.3662 7.73435C35.1641 9.36172 38.9328 16.3727 36.1531 23.2501C37.3735 23.2629 38.5617 23.2998 39.7147 23.3589ZM10.7914 35.0446C11.6123 35.7292 12.5404 35.9111 13.475 36.082C14.0923 43.3408 18.2141 47.5981 22.7164 51.5287C16.2589 47.8898 12.0759 42.5655 10.7914 35.0446Z" fill="#462F56"/>
</svg>
