<svg width="28" height="28" viewBox="0 0 28 28" fill="none" xmlns="http://www.w3.org/2000/svg">
<g clip-path="url(#clip0_138_1216)">
<path d="M10.5 6.125V21.875" stroke="#222222" stroke-width="2" stroke-linecap="round" stroke-linejoin="round"/>
<path d="M2.625 17.5C3.55326 17.5 4.4435 17.1313 5.09987 16.4749C5.75625 15.8185 6.125 14.9283 6.125 14C6.125 13.0717 5.75625 12.1815 5.09987 11.5251C4.4435 10.8687 3.55326 10.5 2.625 10.5V7C2.625 6.76794 2.71719 6.54538 2.88128 6.38128C3.04538 6.21719 3.26794 6.125 3.5 6.125H24.5C24.7321 6.125 24.9546 6.21719 25.1187 6.38128C25.2828 6.54538 25.375 6.76794 25.375 7V10.5C24.4467 10.5 23.5565 10.8687 22.9001 11.5251C22.2437 12.1815 21.875 13.0717 21.875 14C21.875 14.9283 22.2437 15.8185 22.9001 16.4749C23.5565 17.1313 24.4467 17.5 25.375 17.5V21C25.375 21.2321 25.2828 21.4546 25.1187 21.6187C24.9546 21.7828 24.7321 21.875 24.5 21.875H3.5C3.26794 21.875 3.04538 21.7828 2.88128 21.6187C2.71719 21.4546 2.625 21.2321 2.625 21V17.5Z" stroke="#222222" stroke-width="2" stroke-linecap="round" stroke-linejoin="round"/>
</g>
<defs>
<clipPath id="clip0_138_1216">
<rect width="28" height="28" fill="white"/>
</clipPath>
</defs>
</svg>
